<svg width="20" height="20" viewBox="0 0 20 20" fill="none" xmlns="http://www.w3.org/2000/svg">
<path d="M20 10C20 4.48 15.52 0 10 0C4.48 0 0 4.48 0 10C0 15.52 4.48 20 10 20C15.52 20 20 15.52 20 10ZM2 10C2 5.58 5.58 2 10 2C14.42 2 18 5.58 18 10C18 14.42 14.42 18 10 18C5.58 18 2 14.42 2 10Z" fill="black"/>
<path d="M14.1286 6.10257L13.2969 5.27097L10 8.56791L6.70306 5.27097L5.87145 6.10257L9.16839 9.39952L5.87145 12.6965L6.70306 13.5281L10 10.2311L13.2969 13.5281L14.1286 12.6965L10.8316 9.39952L14.1286 6.10257Z" fill="#FE4343"/>
</svg>
