<svg width="21" height="21" viewBox="0 0 21 21" fill="none" xmlns="http://www.w3.org/2000/svg">
<path d="M12.3938 1.09816C13.0811 1.0983 13.6438 1.6608 13.6438 2.34816V12.3472C13.6438 12.3592 13.6422 12.3713 13.6418 12.3833V5.41457H7.73364C7.13375 5.41457 6.59729 5.67987 6.23071 6.09816H6.1438V6.20461C5.88766 6.54075 5.73364 6.95934 5.73364 7.41457V13.5972H2.39478C1.70733 13.5972 1.14478 13.0346 1.14478 12.3472V2.34816C1.14478 1.66071 1.70733 1.09816 2.39478 1.09816H12.3938ZM2.39478 9.84718V12.3472H4.8938V9.84718H2.39478ZM2.39478 6.09816V8.59718H4.8938V6.09816H2.39478ZM2.39478 2.34816V4.84816H4.8938V2.34816H2.39478ZM6.1438 2.34816V4.84816H8.6438V2.34816H6.1438ZM9.8938 2.34816V4.84816H12.3938V2.34816H9.8938Z" fill="black"/>
<path d="M17.7733 6.22517C18.4606 6.22532 19.0233 6.78781 19.0233 7.47517V17.4742C19.0233 17.4863 19.0217 17.4984 19.0214 17.5103V10.5416H13.1132C12.5132 10.5416 11.9768 10.8069 11.6102 11.2252H11.5233V11.3316C11.2672 11.6678 11.1132 12.0864 11.1132 12.5416V18.7242H7.77429C7.08685 18.7242 6.52429 18.1616 6.52429 17.4742V7.47517C6.52429 6.78773 7.08685 6.22517 7.77429 6.22517H17.7733ZM7.77429 14.9742V17.4742H10.2733V14.9742H7.77429ZM7.77429 11.2252V13.7242H10.2733V11.2252H7.77429ZM7.77429 7.47517V9.97517H10.2733V7.47517H7.77429ZM11.5233 7.47517V9.97517H14.0233V7.47517H11.5233ZM15.2733 7.47517V9.97517H17.7733V7.47517H15.2733Z" fill="black"/>
<path d="M18.68 11.1724H12.8067C12.341 11.1724 11.9677 11.55 11.9677 12.0115V17.8848C11.9677 18.3463 12.341 18.7238 12.8067 18.7238H18.68C19.1415 18.7238 19.5191 18.3463 19.5191 17.8848V12.0115C19.5191 11.55 19.1415 11.1724 18.68 11.1724ZM18.68 17.8848H12.8067V12.0115H18.68V17.8848ZM15.3238 17.0457H16.1629V15.3677H17.841V14.5286H16.1629V12.8505H15.3238V14.5286H13.6457V15.3677H15.3238V17.0457Z" fill="black"/>
</svg>
