<svg width="21" height="21" viewBox="0 0 21 21" fill="none" xmlns="http://www.w3.org/2000/svg">
<path d="M12.8076 0C13.5902 9.64109e-05 14.2303 0.640319 14.2305 1.42285V12.8076C14.2305 12.8213 14.2289 12.8351 14.2285 12.8486V4.91406H7.22461C6.12004 4.91406 5.22461 5.80949 5.22461 6.91406V14.2305H1.42285C0.640152 14.2305 0 13.5903 0 12.8076V1.42285C0.000129869 0.64026 0.640232 0 1.42285 0H12.8076ZM1.42285 9.96191V12.8076H4.26855V9.96191H1.42285ZM1.42285 5.69238V8.53809H4.26855V5.69238H1.42285ZM1.42285 1.42285V4.26953H4.26855V1.42285H1.42285ZM5.69238 1.42285V4.26953H8.53809V1.42285H5.69238ZM9.96094 1.42285V4.26953H12.8076V1.42285H9.96094Z" fill="black"/>
<path d="M18.9326 5.83742C19.7152 5.83751 20.3553 6.47774 20.3555 7.26027V18.645C20.3555 18.6587 20.3539 18.6725 20.3535 18.6861V10.7515H13.3496C12.245 10.7515 11.3496 11.6469 11.3496 12.7515V20.0679H7.54785C6.76515 20.0679 6.125 19.4277 6.125 18.645V7.26027C6.12513 6.47768 6.76523 5.83742 7.54785 5.83742H18.9326ZM7.54785 15.7993V18.645H10.3936V15.7993H7.54785ZM7.54785 11.5298V14.3755H10.3936V11.5298H7.54785ZM7.54785 7.26027V10.1069H10.3936V7.26027H7.54785ZM11.8174 7.26027V10.1069H14.6631V7.26027H11.8174ZM16.0859 7.26027V10.1069H18.9326V7.26027H16.0859Z" fill="black"/>
<path d="M19.9649 11.4702H13.2778C12.7476 11.4702 12.3225 11.9 12.3225 12.4255V19.1126C12.3225 19.638 12.7476 20.0679 13.2778 20.0679H19.9649C20.4904 20.0679 20.9202 19.638 20.9202 19.1126V12.4255C20.9202 11.9 20.4904 11.4702 19.9649 11.4702ZM19.9649 19.1126H13.2778V12.4255H19.9649V19.1126ZM16.1437 18.1573H17.099V16.2467H19.0096V15.2914H17.099V13.3808H16.1437V15.2914H14.2331V16.2467H16.1437V18.1573Z" fill="black"/>
</svg>
