<svg width="18" height="20" viewBox="0 0 18 20" fill="none" xmlns="http://www.w3.org/2000/svg">
<path d="M2 2H6.18C6.6 0.84 7.7 0 9 0C10.3 0 11.4 0.84 11.82 2H16C16.14 2 16.27 2.01 16.4 2.04C16.79 2.12 17.14 2.32 17.41 2.59C17.59 2.77 17.74 2.99 17.84 3.23C17.94 3.46 18 3.72 18 4V18C18 18.27 17.94 18.54 17.84 18.78C17.74 19.02 17.59 19.23 17.41 19.42C17.14 19.69 16.79 19.89 16.4 19.97C16.27 19.99 16.14 20 16 20H2C0.9 20 0 19.1 0 18V4C0 2.9 0.9 2 2 2ZM9 1.75C8.59 1.75 8.25 2.09 8.25 2.5C8.25 2.91 8.59 3.25 9 3.25C9.41 3.25 9.75 2.91 9.75 2.5C9.75 2.09 9.41 1.75 9 1.75ZM2 18H16V4H2V18Z" fill="black"/>
</svg>
