<svg width="18" height="18" viewBox="0 0 18 18" fill="none" xmlns="http://www.w3.org/2000/svg">
<path d="M8.21392 10.9368H2.73792V12.7596H8.21392V10.9368Z" fill="black"/>
<path d="M13.69 3.64563H8.21399V5.46841H13.69V3.64563Z" fill="black"/>
<path d="M10.9521 7.29114H5.47607V9.11392H10.9521V7.29114Z" fill="black"/>
<path d="M14.6027 0H1.82533C0.821401 0 0 0.820253 0 1.82278V14.5823C0 15.5848 0.821401 16.4051 1.82533 16.4051H14.6027C15.6066 16.4051 16.428 15.5848 16.428 14.5823V1.82278C16.428 0.820253 15.6066 0 14.6027 0ZM14.6027 14.5823H1.82533V1.82278H14.6027V14.5823Z" fill="black"/>
<rect x="10.8019" y="10.7919" width="6.58202" height="6.05935" fill="white"/>
<path d="M16.9762 10.0824H11.2973C10.8512 10.0824 10.4861 10.447 10.4861 10.8925V16.5634C10.4861 17.009 10.8512 17.3735 11.2973 17.3735H16.9762C17.4224 17.3735 17.7874 17.009 17.7874 16.5634V10.8925C17.7874 10.447 17.4224 10.0824 16.9762 10.0824ZM14.1368 11.2976C14.9196 11.2976 15.5565 11.9335 15.5565 12.7153C15.5565 13.4971 14.9196 14.133 14.1368 14.133C13.3539 14.133 12.717 13.4971 12.717 12.7153C12.717 11.9335 13.3539 11.2976 14.1368 11.2976ZM16.9762 16.5634H11.2973V16.4702C11.2973 16.2191 11.4109 15.9842 11.6056 15.8302C12.2992 15.2753 13.1795 14.9432 14.1368 14.9432C15.094 14.9432 15.9743 15.2753 16.6679 15.8302C16.8626 15.9842 16.9762 16.2232 16.9762 16.4702V16.5634Z" fill="black"/>
</svg>
