<svg width="19" height="18" viewBox="0 0 19 18" fill="none" xmlns="http://www.w3.org/2000/svg">
<path d="M12.7871 0C13.6662 0 14.3857 0.718776 14.3857 1.59668V2.08398H12.7871V1.59668H1.59863V12.7695H2.22852V14.3662H1.59863C0.719501 14.3662 0 13.6474 0 12.7695V1.59668C0 0.718776 0.719501 0 1.59863 0H12.7871Z" fill="black"/>
<path d="M10.4983 12.3634H5.703V13.9596H10.4983V12.3634Z" fill="black"/>
<path d="M15.2936 5.97864H10.4983V7.57483H15.2936V5.97864Z" fill="black"/>
<path d="M12.896 9.1709H8.10071V10.7671H12.896V9.1709Z" fill="black"/>
<path d="M16.0928 2.78613H4.90384C4.02471 2.78613 3.30542 3.50442 3.30542 4.38232V15.5556C3.30542 16.4335 4.02471 17.1518 4.90384 17.1518H16.0928C16.9719 17.1518 17.6912 16.4335 17.6912 15.5556V4.38232C17.6912 3.50442 16.9719 2.78613 16.0928 2.78613ZM16.0928 15.5556H4.90384V4.38232H16.0928V15.5556Z" fill="black"/>
<rect x="12.7645" y="12.2365" width="5.76379" height="5.30609" fill="white"/>
<path d="M18.1712 11.6152H13.1983C12.8076 11.6152 12.4879 11.9345 12.4879 12.3247V17.2906C12.4879 17.6807 12.8076 18 13.1983 18H18.1712C18.5619 18 18.8816 17.6807 18.8816 17.2906V12.3247C18.8816 11.9345 18.5619 11.6152 18.1712 11.6152ZM15.6848 12.6794C16.3703 12.6794 16.928 13.2363 16.928 13.9208C16.928 14.6054 16.3703 15.1623 15.6848 15.1623C14.9992 15.1623 14.4415 14.6054 14.4415 13.9208C14.4415 13.2363 14.9992 12.6794 15.6848 12.6794ZM18.1712 17.2906H13.1983V17.209C13.1983 16.9891 13.2978 16.7833 13.4683 16.6485C14.0757 16.1626 14.8465 15.8717 15.6848 15.8717C16.523 15.8717 17.2938 16.1626 17.9012 16.6485C18.0717 16.7833 18.1712 16.9926 18.1712 17.209V17.2906Z" fill="black"/>
</svg>
