<svg width="18" height="18" viewBox="0 0 18 18" fill="none" xmlns="http://www.w3.org/2000/svg">
<g clip-path="url(#clip0_44_56)">
<path d="M17.5 13H16V8.664C16.0122 8.50092 15.9594 8.33963 15.8532 8.21526C15.747 8.0909 15.596 8.01353 15.433 8H9.662V4.422H8.338V8H2.567C2.40402 8.01353 2.25299 8.0909 2.14679 8.21526C2.04059 8.33963 1.98783 8.50092 2 8.664V13H0.5C0.367392 13 0.240215 13.0527 0.146447 13.1464C0.0526784 13.2402 0 13.3674 0 13.5L0 17.5C0 17.6326 0.0526784 17.7598 0.146447 17.8536C0.240215 17.9473 0.367392 18 0.5 18H4.5C4.63261 18 4.75979 17.9473 4.85355 17.8536C4.94732 17.7598 5 17.6326 5 17.5V13.5C5 13.3674 4.94732 13.2402 4.85355 13.1464C4.75979 13.0527 4.63261 13 4.5 13H3.135V9.326H8.335V13H7C6.86739 13 6.74021 13.0527 6.64645 13.1464C6.55268 13.2402 6.5 13.3674 6.5 13.5V17.5C6.5 17.6326 6.55268 17.7598 6.64645 17.8536C6.74021 17.9473 6.86739 18 7 18H11C11.1326 18 11.2598 17.9473 11.3536 17.8536C11.4473 17.7598 11.5 17.6326 11.5 17.5V13.5C11.5 13.3674 11.4473 13.2402 11.3536 13.1464C11.2598 13.0527 11.1326 13 11 13H9.662V9.326H14.862V13H13.5C13.3674 13 13.2402 13.0527 13.1464 13.1464C13.0527 13.2402 13 13.3674 13 13.5V17.5C13 17.6326 13.0527 17.7598 13.1464 17.8536C13.2402 17.9473 13.3674 18 13.5 18H17.5C17.6326 18 17.7598 17.9473 17.8536 17.8536C17.9473 17.7598 18 17.6326 18 17.5V13.5C18 13.3674 17.9473 13.2402 17.8536 13.1464C17.7598 13.0527 17.6326 13 17.5 13Z" fill="black"/>
<path d="M11.908 0H6.092C5.76505 0 5.5 0.265047 5.5 0.592V4.408C5.5 4.73495 5.76505 5 6.092 5H11.908C12.235 5 12.5 4.73495 12.5 4.408V0.592C12.5 0.265047 12.235 0 11.908 0Z" fill="black"/>
</g>
<defs>
<clipPath id="clip0_44_56">
<rect width="18" height="18" fill="white"/>
</clipPath>
</defs>
</svg>
