<svg width="18" height="18" viewBox="0 0 18 18" fill="none" xmlns="http://www.w3.org/2000/svg">
<g clip-path="url(#clip0_42_36)">
<path d="M13.117 4.5H5.60005C5.00605 4.5 4.52405 4.185 4.52405 3.8C4.52405 3.415 5.00605 3.1 5.60005 3.1H13.117C13.711 3.1 14.188 3.414 14.188 3.8C14.188 4.186 13.711 4.5 13.117 4.5Z" fill="black"/>
<path d="M14.625 6.262V13.779C14.625 14.373 14.31 14.854 13.925 14.854C13.54 14.854 13.225 14.373 13.225 13.779V6.262C13.225 5.668 13.539 5.191 13.925 5.191C14.311 5.191 14.625 5.668 14.625 6.262Z" fill="black"/>
<path d="M13.922 7.875C13.1431 7.8752 12.3816 7.64438 11.7338 7.21174C11.0861 6.77911 10.5812 6.16409 10.283 5.44447C9.98481 4.72485 9.90674 3.93297 10.0587 3.16898C10.2106 2.40499 10.5856 1.70321 11.1364 1.15241C11.6872 0.601614 12.389 0.226536 13.153 0.0746192C13.917 -0.0772975 14.7089 0.000772327 15.4285 0.298954C16.1481 0.597136 16.7631 1.10203 17.1958 1.74979C17.6284 2.39754 17.8592 3.15905 17.859 3.938C17.8574 4.98167 17.4421 5.98214 16.7042 6.72013C15.9662 7.45811 14.9657 7.87341 13.922 7.875Z" fill="black"/>
<path d="M13.922 6.469C15.3198 6.469 16.453 5.33583 16.453 3.938C16.453 2.54017 15.3198 1.407 13.922 1.407C12.5242 1.407 11.391 2.54017 11.391 3.938C11.391 5.33583 12.5242 6.469 13.922 6.469Z" fill="#F5F5F5"/>
<path d="M13.9219 18C13.8454 18 13.7696 17.985 13.6989 17.9556C13.6282 17.9263 13.564 17.8832 13.5099 17.829L10.0099 14.329C9.901 14.2196 9.83984 14.0714 9.83984 13.917C9.83984 13.7626 9.901 13.6144 10.0099 13.505L13.5099 10.005C13.6194 9.89606 13.7675 9.8349 13.9219 9.8349C14.0764 9.8349 14.2245 9.89606 14.3339 10.005L17.8339 13.505C17.8881 13.5591 17.9311 13.6233 17.9604 13.694C17.9898 13.7647 18.0049 13.8405 18.0049 13.917C18.0049 13.9935 17.9898 14.0693 17.9604 14.14C17.9311 14.2107 17.8881 14.2749 17.8339 14.329L14.3339 17.829C14.2799 17.8832 14.2157 17.9263 14.145 17.9556C14.0743 17.985 13.9985 18 13.9219 18Z" fill="black"/>
<path d="M4.64097 5.137V12.654C4.64097 13.248 4.32597 13.729 3.94097 13.729C3.55597 13.729 3.24097 13.248 3.24097 12.654V5.137C3.24097 4.543 3.55597 4.066 3.94097 4.066C4.32597 4.066 4.64097 4.543 4.64097 5.137Z" fill="black"/>
<path d="M3.93802 7.875C3.15908 7.8752 2.39757 7.64438 1.74981 7.21174C1.10206 6.77911 0.597161 6.16409 0.298979 5.44447C0.000797123 4.72485 -0.0772727 3.93297 0.074644 3.16898C0.226561 2.40499 0.601639 1.70321 1.15244 1.15241C1.70324 0.601614 2.40501 0.226536 3.169 0.0746192C3.933 -0.0772975 4.72488 0.000772327 5.44449 0.298954C6.16411 0.597136 6.77913 1.10203 7.21177 1.74979C7.64441 2.39754 7.87522 3.15905 7.87503 3.938C7.87344 4.98167 7.45814 5.98214 6.72015 6.72013C5.98216 7.45811 4.9817 7.87341 3.93802 7.875Z" fill="black"/>
<path d="M3.93798 6.469C5.33582 6.469 6.46898 5.33583 6.46898 3.938C6.46898 2.54017 5.33582 1.407 3.93798 1.407C2.54015 1.407 1.40698 2.54017 1.40698 3.938C1.40698 5.33583 2.54015 6.469 3.93798 6.469Z" fill="#F5F5F5"/>
<path d="M7.312 18H0.562C0.488197 18 0.415117 17.9855 0.346932 17.9572C0.278747 17.929 0.216793 17.8876 0.164606 17.8354C0.112419 17.7832 0.0710228 17.7213 0.0427797 17.6531C0.0145366 17.5849 0 17.5118 0 17.438L0 10.688C-2.35265e-07 10.5389 0.0591784 10.3958 0.164545 10.2903C0.269912 10.1847 0.412856 10.1253 0.562 10.125H7.312C7.46132 10.125 7.60452 10.1843 7.7101 10.2899C7.81568 10.3955 7.875 10.5387 7.875 10.688V17.438C7.87474 17.5871 7.8153 17.7301 7.70975 17.8355C7.60419 17.9408 7.46114 18 7.312 18Z" fill="black"/>
<path d="M6.22799 16.734H1.64699C1.59692 16.7341 1.54732 16.7244 1.50103 16.7053C1.45475 16.6862 1.4127 16.6581 1.37729 16.6227C1.34189 16.5873 1.31383 16.5452 1.29473 16.499C1.27563 16.4527 1.26586 16.4031 1.26599 16.353V11.772C1.26586 11.7219 1.27563 11.6723 1.29473 11.626C1.31383 11.5798 1.34189 11.5377 1.37729 11.5023C1.4127 11.4669 1.45475 11.4388 1.50103 11.4197C1.54732 11.4006 1.59692 11.3909 1.64699 11.391H6.22799C6.27806 11.3909 6.32767 11.4006 6.37395 11.4197C6.42024 11.4388 6.46229 11.4669 6.49769 11.5023C6.5331 11.5377 6.56116 11.5798 6.58026 11.626C6.59936 11.6723 6.60912 11.7219 6.60899 11.772V16.353C6.60912 16.4031 6.59936 16.4527 6.58026 16.499C6.56116 16.5452 6.5331 16.5873 6.49769 16.6227C6.46229 16.6581 6.42024 16.6862 6.37395 16.7053C6.32767 16.7244 6.27806 16.7341 6.22799 16.734Z" fill="#F5F5F5"/>
</g>
<defs>
<clipPath id="clip0_42_36">
<rect width="18" height="18" fill="white"/>
</clipPath>
</defs>
</svg>
