<svg width="15" height="13" viewBox="0 0 15 13" fill="none" xmlns="http://www.w3.org/2000/svg">
<g clip-path="url(#clip0_10660_5037)">
<path d="M14.2519 5.51664C14.2519 2.4879 11.0848 0 7.12596 0C3.16709 0 0 2.4879 0 5.51664C0 7.13918 0.904883 8.54538 2.26221 9.5189C2.26221 9.89887 1.60597 11.8668 1.82564 12.0014C2.04531 12.136 4.57498 10.8715 5.39602 10.5791C5.96157 10.6873 6.53017 10.6898 7.09572 10.6898C11.0546 10.6898 14.2519 8.54538 14.2519 5.51664Z" fill="#333333"/>
<path fill-rule="evenodd" clip-rule="evenodd" d="M9.36002 4.80959C9.64849 4.80773 9.90963 4.97396 10.0214 5.23057C10.1331 5.48718 10.0733 5.78348 9.87003 5.98094C9.66673 6.17841 9.36004 6.23804 9.09333 6.13196C8.82663 6.02588 8.65259 5.77505 8.65259 5.49671C8.65259 5.11901 8.96855 4.8121 9.36002 4.80959Z" fill="white"/>
<path fill-rule="evenodd" clip-rule="evenodd" d="M7.11356 4.80957C6.82552 4.80957 6.56583 4.97698 6.4556 5.23375C6.34537 5.49051 6.4063 5.78605 6.60998 5.98257C6.81366 6.17909 7.11998 6.23788 7.3861 6.13152C7.65222 6.02517 7.82574 5.77462 7.82574 5.4967C7.82574 5.11721 7.50689 4.80957 7.11356 4.80957Z" fill="white"/>
<path fill-rule="evenodd" clip-rule="evenodd" d="M4.91215 4.80957C4.6241 4.80957 4.36441 4.97698 4.25418 5.23375C4.14395 5.49051 4.20488 5.78605 4.40856 5.98257C4.61224 6.17909 4.91856 6.23788 5.18469 6.13152C5.45081 6.02517 5.62432 5.77462 5.62432 5.4967C5.62432 5.11721 5.30547 4.80957 4.91215 4.80957Z" fill="white"/>
</g>
<defs>
<clipPath id="clip0_10660_5037">
<rect width="15" height="13" fill="white"/>
</clipPath>
</defs>
</svg>
