<svg width="24" height="21" viewBox="0 0 24 21" fill="none" xmlns="http://www.w3.org/2000/svg">
<g clip-path="url(#clip0_10662_5058)">
<mask id="mask0_10662_5058" style="mask-type:luminance" maskUnits="userSpaceOnUse" x="0" y="0" width="24" height="21">
<path d="M24 0H0V20.8H24V0Z" fill="white"/>
</mask>
<g mask="url(#mask0_10662_5058)">
<path d="M22.8031 9.82662C22.8031 4.98063 17.7357 1 11.4015 1C5.06735 1 0 4.98063 0 9.82662C0 12.4227 1.44781 14.6726 3.61953 16.2302C3.61953 16.8382 2.56955 19.9869 2.92102 20.2022C3.27249 20.4175 7.31997 18.3943 8.63363 17.9266C9.53851 18.0997 10.4483 18.1037 11.3532 18.1037C17.6873 18.1037 22.8031 14.6726 22.8031 9.82662Z" fill="#333333"/>
<path fill-rule="evenodd" clip-rule="evenodd" d="M14.9761 8.69631C15.4377 8.69335 15.8555 8.95932 16.0343 9.36989C16.213 9.78047 16.1174 10.2546 15.7921 10.5705C15.4669 10.8865 14.9762 10.9819 14.5494 10.8122C14.1227 10.6424 13.8442 10.2411 13.8442 9.79572C13.8442 9.19139 14.3498 8.70034 14.9761 8.69631Z" fill="white"/>
<path fill-rule="evenodd" clip-rule="evenodd" d="M11.3817 8.69629C10.9208 8.69629 10.5053 8.96415 10.329 9.37497C10.1526 9.78579 10.2501 10.2586 10.576 10.5731C10.9019 10.8875 11.392 10.9815 11.8178 10.8114C12.2436 10.6412 12.5212 10.2403 12.5212 9.7957C12.5212 9.18851 12.011 8.69629 11.3817 8.69629Z" fill="white"/>
<path fill-rule="evenodd" clip-rule="evenodd" d="M7.85949 8.69629C7.39861 8.69629 6.98311 8.96415 6.80674 9.37497C6.63037 9.78579 6.72786 10.2587 7.05375 10.5731C7.37964 10.8876 7.86975 10.9816 8.29555 10.8115C8.72134 10.6413 8.99897 10.2404 8.99897 9.79569C8.99897 9.18851 8.4888 8.69629 7.85949 8.69629Z" fill="white"/>
<path d="M18 21C20.7614 21 23 18.7614 23 16C23 13.2386 20.7614 11 18 11C15.2386 11 13 13.2386 13 16C13 18.7614 15.2386 21 18 21Z" fill="white"/>
<path d="M18 19C19.6569 19 21 17.6569 21 16C21 14.3431 19.6569 13 18 13C16.3431 13 15 14.3431 15 16C15 17.6569 16.3431 19 18 19Z" fill="#25CA3F"/>
</g>
</g>
<defs>
<clipPath id="clip0_10662_5058">
<rect width="24" height="21" fill="white"/>
</clipPath>
</defs>
</svg>
