<svg width="24" height="24" viewBox="0 0 24 24" fill="none" xmlns="http://www.w3.org/2000/svg">
<path d="M18 3C19.1 3 20 3.9 20 5V12.084C19.6747 12.0294 19.3408 12 19 12C18.6592 12 18.3253 12.0294 18 12.084V5H4V19H13.085C13.2055 19.7181 13.4531 20.3925 13.8047 21H4C2.9 21 2 20.1 2 19V5C2 3.9 2.9 3 4 3H18Z" fill="#333333"/>
<path d="M14.6494 13.8701C13.8453 14.7169 13.2868 15.7975 13.085 17H5L8 13.1396L10.1396 15.7305L13.1396 11.8604L14.6494 13.8701Z" fill="#333333"/>
<path d="M23 18L21.59 16.59L20 18.17V14H18V18.17L16.41 16.59L15 18L19 22L23 18Z" fill="#333333"/>
</svg>
