<svg width="18" height="18" viewBox="0 0 18 18" fill="none" xmlns="http://www.w3.org/2000/svg">
<g clip-path="url(#clip0_44_62)">
<path d="M17.4821 0.847992H0.659058V17.236H17.4821V0.847992Z" fill="white"/>
<path d="M0 0.75V17.25C0 17.4489 0.0790176 17.6397 0.21967 17.7803C0.360322 17.921 0.551088 18 0.75 18H17.25C17.4489 18 17.6397 17.921 17.7803 17.7803C17.921 17.6397 18 17.4489 18 17.25V0.75C18 0.551088 17.921 0.360322 17.7803 0.21967C17.6397 0.0790176 17.4489 0 17.25 0L0.75 0C0.551088 0 0.360322 0.0790176 0.21967 0.21967C0.0790176 0.360322 0 0.551088 0 0.75ZM1.125 16.108V1.892C1.125 1.69309 1.20402 1.50232 1.34467 1.36167C1.48532 1.22102 1.67609 1.142 1.875 1.142H16.125C16.3239 1.142 16.5147 1.22102 16.6553 1.36167C16.796 1.50232 16.875 1.69309 16.875 1.892V16.108C16.875 16.3069 16.796 16.4977 16.6553 16.6383C16.5147 16.779 16.3239 16.858 16.125 16.858H1.875C1.67609 16.858 1.48532 16.779 1.34467 16.6383C1.20402 16.4977 1.125 16.3069 1.125 16.108Z" fill="black"/>
<path d="M11.091 10.091C11.091 2.94501 4 3.00001 4 3.00001C4 3.00001 7.273 3.70901 7.273 10.091H4.545L9.291 15L13.818 10.091H11.091Z" fill="black"/>
</g>
<defs>
<clipPath id="clip0_44_62">
<rect width="18" height="18" fill="white"/>
</clipPath>
</defs>
</svg>
