<svg width="18" height="14" viewBox="0 0 18 14" fill="none" xmlns="http://www.w3.org/2000/svg">
<path d="M0 0V12.8321H16.4985V0H0ZM3.66633 1.83316V3.66633H1.83316V1.83316H3.66633ZM1.83316 7.33265V5.49949H3.66633V7.33265H1.83316ZM1.83316 9.16582H3.66633V10.999H1.83316V9.16582ZM14.6653 10.999H5.49949V9.16582H14.6653V10.999ZM14.6653 7.33265H5.49949V5.49949H14.6653V7.33265ZM14.6653 3.66633H5.49949V1.83316H14.6653V3.66633Z" fill="black"/>
<rect x="10.678" y="7.12952" width="6.61025" height="6.09385" fill="white"/>
<path d="M16.8789 6.41602H11.1757C10.7276 6.41602 10.361 6.78265 10.361 7.23075V12.9339C10.361 13.382 10.7276 13.7487 11.1757 13.7487H16.8789C17.327 13.7487 17.6936 13.382 17.6936 12.9339V7.23075C17.6936 6.78265 17.327 6.41602 16.8789 6.41602ZM14.0273 7.63812C14.8135 7.63812 15.4531 8.27769 15.4531 9.06392C15.4531 9.85014 14.8135 10.4897 14.0273 10.4897C13.2411 10.4897 12.6015 9.85014 12.6015 9.06392C12.6015 8.27769 13.2411 7.63812 14.0273 7.63812ZM16.8789 12.9339H11.1757V12.8402C11.1757 12.5877 11.2898 12.3514 11.4853 12.1966C12.1819 11.6385 13.0659 11.3045 14.0273 11.3045C14.9887 11.3045 15.8727 11.6385 16.5693 12.1966C16.7648 12.3514 16.8789 12.5917 16.8789 12.8402V12.9339Z" fill="black"/>
</svg>
