<svg width="20" height="18" viewBox="0 0 20 18" fill="none" xmlns="http://www.w3.org/2000/svg">
<g clip-path="url(#clip0_10659_5016)">
<path d="M3.04346 13.286V8.64355H16.9565V13.286" stroke="#333333" stroke-width="1.16537" stroke-linejoin="round"/>
<path d="M10 13.2853V4.71387" stroke="#333333" stroke-width="1.16537" stroke-linecap="square"/>
<path d="M5.25455 12.8574H0.832404C0.37268 12.8574 0 13.2301 0 13.6898V17.1679C0 17.6276 0.37268 18.0003 0.832404 18.0003H5.25455C5.71428 18.0003 6.08696 17.6276 6.08696 17.1679V13.6898C6.08696 13.2301 5.71428 12.8574 5.25455 12.8574Z" fill="#333333"/>
<path d="M12.2111 12.8574H7.78895C7.32922 12.8574 6.95654 13.2301 6.95654 13.6898V17.1679C6.95654 17.6276 7.32922 18.0003 7.78895 18.0003H12.2111C12.6708 18.0003 13.0435 17.6276 13.0435 17.1679V13.6898C13.0435 13.2301 12.6708 12.8574 12.2111 12.8574Z" fill="#333333"/>
<path d="M19.1676 12.8574H14.7455C14.2858 12.8574 13.9131 13.2301 13.9131 13.6898V17.1679C13.9131 17.6276 14.2858 18.0003 14.7455 18.0003H19.1676C19.6274 18.0003 20 17.6276 20 17.1679V13.6898C20 13.2301 19.6274 12.8574 19.1676 12.8574Z" fill="#333333"/>
<path d="M13.0806 0H6.91932C6.45959 0 6.08691 0.37268 6.08691 0.832404V4.31045C6.08691 4.77018 6.45959 5.14286 6.91932 5.14286H13.0806C13.5403 5.14286 13.913 4.77018 13.913 4.31045V0.832404C13.913 0.37268 13.5403 0 13.0806 0Z" fill="#333333"/>
</g>
<defs>
<clipPath id="clip0_10659_5016">
<rect width="20" height="18" fill="white"/>
</clipPath>
</defs>
</svg>
