<svg width="18" height="18" viewBox="0 0 18 18" fill="none" xmlns="http://www.w3.org/2000/svg">
<g clip-path="url(#clip0_44_71)">
<path d="M17.4079 11.921C17.217 11.9254 17.0345 12.0006 16.8959 12.132C16.7573 12.2634 16.6725 12.4416 16.6579 12.632V11.921C16.6579 11.7221 16.5789 11.5313 16.4383 11.3907C16.2976 11.25 16.1068 11.171 15.9079 11.171C15.709 11.171 15.5183 11.25 15.3776 11.3907C15.237 11.5313 15.1579 11.7221 15.1579 11.921V11.171C15.1579 10.9721 15.0789 10.7813 14.9383 10.6407C14.7976 10.5 14.6068 10.421 14.4079 10.421C14.209 10.421 14.0183 10.5 13.8776 10.6407C13.737 10.7813 13.6579 10.9721 13.6579 11.171V8.132C13.6579 7.93309 13.5789 7.74233 13.4383 7.60167C13.2976 7.46102 13.1068 7.382 12.9079 7.382C12.709 7.382 12.5183 7.46102 12.3776 7.60167C12.237 7.74233 12.1579 7.93309 12.1579 8.132V13.224C12.1508 13.268 12.1325 13.3095 12.1049 13.3445C12.0772 13.3795 12.0411 13.4069 11.9999 13.424C11.9576 13.4417 11.9102 13.4435 11.8666 13.4289C11.8231 13.4144 11.7862 13.3846 11.7629 13.345C11.2099 12.634 11.2499 11.884 10.4209 11.884C10.324 11.8807 10.228 11.9048 10.1441 11.9536C10.0603 12.0025 9.99192 12.074 9.94694 12.16C9.90803 12.2399 9.88782 12.3276 9.88782 12.4165C9.88782 12.5054 9.90803 12.5931 9.94694 12.673L12.3149 17.805C12.3473 17.8616 12.3931 17.9093 12.4481 17.9442C12.5032 17.9791 12.566 17.9999 12.6309 18.005H17.0519C17.3555 18.0047 17.6466 17.884 17.8613 17.6693C18.076 17.4547 18.1967 17.1636 18.1969 16.86V12.671C18.1751 12.473 18.0839 12.2891 17.9395 12.1518C17.7951 12.0145 17.6068 11.9328 17.4079 11.921Z" fill="black"/>
<path d="M16.697 0H0V2.368H16.697V0Z" fill="black"/>
<path d="M16.697 4.421H0V6.789H16.697V4.421Z" fill="black"/>
<path d="M10.382 8.842H0V11.21H10.382V8.842Z" fill="black"/>
</g>
<defs>
<clipPath id="clip0_44_71">
<rect width="18" height="18" fill="white"/>
</clipPath>
</defs>
</svg>
